<?xml version="1.0" encoding="utf-8"?>
<!-- Generator: Adobe Illustrator 19.0.0, SVG Export Plug-In . SVG Version: 6.00 Build 0)  -->
<svg version="1.1" id="Layer_1" xmlns="http://www.w3.org/2000/svg" xmlns:xlink="http://www.w3.org/1999/xlink" x="0px" y="0px"
	 viewBox="0 0 200 100" style="enable-background:new 0 0 200 100;" xml:space="preserve">
<style type="text/css">
	.st0{fill:none;}
	.st1{opacity:0;}
	.st2{strote:#FFFFFF}
</style>
<g id="XMLID_5_" transform="translate(1905 381) scale(0.9716666666666667)">
	<g id="editor-p">
		<g id="editor-p-bg">
			<g id="XMLID_41_">
				<g id="XMLID_42_">
					<g id="XMLID_3_">
						<g id="XMLID_21_">
							<path id="XMLID_25_" class="st0" d="M-1991.7-419.1c35.5,0,71,0,106.5,0c56.1,0,112.1,0,168.2,0c12.8,0,25.6,0,38.4,0
								c-0.5-0.5-1-1-1.5-1.5c0,26.4,0,52.9,0,79.3c0,42.3,0,84.7,0,127c0,9.7,0,19.4,0,29c0.5-0.5,1-1,1.5-1.5
								c-35.5,0-71,0-106.5,0c-56.1,0-112.1,0-168.2,0c-12.8,0-25.6,0-38.4,0c0.5,0.5,1,1,1.5,1.5c0-26.4,0-52.9,0-79.3
								c0-42.3,0-84.7,0-127c0-9.7,0-19.4,0-29c0-2-3.1-2-3.1,0c0,26.4,0,52.9,0,79.3c0,42.3,0,84.7,0,127c0,9.7,0,19.4,0,29
								c0,0.8,0.7,1.5,1.5,1.5c35.5,0,71,0,106.5,0c56.1,0,112.1,0,168.2,0c12.8,0,25.6,0,38.4,0c0.8,0,1.5-0.7,1.5-1.5
								c0-26.4,0-52.9,0-79.3c0-42.3,0-84.7,0-127c0-9.7,0-19.4,0-29c0-0.8-0.7-1.5-1.5-1.5c-35.5,0-71,0-106.5,0
								c-56.1,0-112.1,0-168.2,0c-12.8,0-25.6,0-38.4,0C-1993.7-422.2-1993.7-419.1-1991.7-419.1z"/>
						</g>
					</g>
				</g>
			</g>
		</g>
		<g id="editor-g53e547e9f9_0_16">
			<g id="XMLID_6_">
				<g id="XMLID_27_">
					<g id="XMLID_2_">
						<g id="XMLID_19_">
							<path id="XMLID_29_" d="M-1877.3-382.8c-3.3,2.5-37.6,31.9-29.9,37.5c1.8,1.3,5.5,0.2,7.4-0.3c4.3-1,8.4-2.6,12.5-4.1
								c3.7-1.3,7.5-2.8,11.4-3.3c6.5-0.8,5.7,4.3,5.5,9.5c-0.4,9-2.8,18.1-4,27c-1.1,8.4,2.7,13.3,11.3,14.5
								c8.4,1.2,16.6-2.8,23.6-7c9-5.5,17.1-12.5,25.8-18.5c8.3-5.8,16.8-11,24.5-17.7c3.2-2.8,6.3-5.7,9.5-8.6
								c2.4-2.1,4.8-4.2,7.2-6.3c1.9-1.7,4.5-3.2,5.8-5.4c0.4-0.7,0.2-1.8-0.6-2.1c-2.4-1.1-5.9-0.3-8.5-0.1
								c-4.2,0.3-8.3,0.7-12.4,1.2c-7.2,0.9-14.4,2.3-21.5,4c-15.8,3.7-31.2,9.1-46.2,15.4c-29.9,12.6-58.2,28.7-86.6,44.3
								c-1.7,1-0.2,3.6,1.6,2.7c27-14.8,53.8-30.1,82.1-42.3c14.3-6.2,28.9-11.6,44-15.6c7.2-1.9,14.5-3.5,21.8-4.7
								c4-0.6,8-1.1,12-1.5c1.8-0.2,3.6-0.3,5.3-0.4c1.7-0.1,5.4-1,6.9-0.3c-0.2-0.7-0.4-1.4-0.6-2.1c-1.2,2.1-4.2,3.8-6,5.4
								c-1.7,1.5-3.4,3-5.1,4.4c-2.7,2.4-5.4,4.9-8.1,7.3c-5.8,5.2-11.8,9.9-18.3,14.2c-7.9,5.3-15.5,10.9-23.1,16.5
								c-7.3,5.4-15.3,11.3-24.2,13.6c-4.4,1.1-9.1,1.2-13.3-0.9c-5.7-2.8-3.9-8.7-3.1-13.8c1.2-7.6,3-15.5,3.3-23.2
								c0.2-4.8,0.9-11.5-5.1-12.6c-5.9-1.1-12.7,2.3-18,4.2c-3.8,1.4-7.7,2.8-11.7,3.6c-2.6,0.5-3.5,1.2-2.2-1.4
								c0.9-1.8,2.3-3.4,3.5-5c7.4-9.5,15.6-18.2,25.2-25.5C-1874.2-381.3-1875.8-384-1877.3-382.8L-1877.3-382.8z"/>
						</g>
					</g>
				</g>
				<g id="XMLID_7_">
					<g id="XMLID_1_" pointer-events="visiblePainted">
						<g id="XMLID_36_" class="st1">
							<path id="XMLID_40_" d="M-1877.3-382.8c-3.3,2.5-37.6,31.9-29.9,37.5c1.8,1.3,5.5,0.2,7.4-0.3c4.3-1,8.4-2.6,12.5-4.1
								c3.7-1.3,7.5-2.8,11.4-3.3c6.5-0.8,5.7,4.3,5.5,9.5c-0.4,9-2.8,18.1-4,27c-1.1,8.4,2.7,13.3,11.3,14.5
								c8.4,1.2,16.6-2.8,23.6-7c9-5.5,17.1-12.5,25.8-18.5c8.3-5.8,16.8-11,24.5-17.7c3.2-2.8,6.3-5.7,9.5-8.6
								c2.4-2.1,4.8-4.2,7.2-6.3c1.9-1.7,4.5-3.2,5.8-5.4c0.4-0.7,0.2-1.8-0.6-2.1c-2.4-1.1-5.9-0.3-8.5-0.1
								c-4.2,0.3-8.3,0.7-12.4,1.2c-7.2,0.9-14.4,2.3-21.5,4c-15.8,3.7-31.2,9.1-46.2,15.4c-29.9,12.6-58.2,28.7-86.6,44.3
								c-1.7,1-0.2,3.6,1.6,2.7c27-14.8,53.8-30.1,82.1-42.3c14.3-6.2,28.9-11.6,44-15.6c7.2-1.9,14.5-3.5,21.8-4.7
								c4-0.6,8-1.1,12-1.5c1.8-0.2,3.6-0.3,5.3-0.4c1.7-0.1,5.4-1,6.9-0.3c-0.2-0.7-0.4-1.4-0.6-2.1c-1.2,2.1-4.2,3.8-6,5.4
								c-1.7,1.5-3.4,3-5.1,4.4c-2.7,2.4-5.4,4.9-8.1,7.3c-5.8,5.2-11.8,9.9-18.3,14.2c-7.9,5.3-15.5,10.9-23.1,16.5
								c-7.3,5.4-15.3,11.3-24.2,13.6c-4.4,1.1-9.1,1.2-13.3-0.9c-5.7-2.8-3.9-8.7-3.1-13.8c1.2-7.6,3-15.5,3.3-23.2
								c0.2-4.8,0.9-11.5-5.1-12.6c-5.9-1.1-12.7,2.3-18,4.2c-3.8,1.4-7.7,2.8-11.7,3.6c-2.6,0.5-3.5,1.2-2.2-1.4
								c0.9-1.8,2.3-3.4,3.5-5c7.4-9.5,15.6-18.2,25.2-25.5C-1874.2-381.3-1875.8-384-1877.3-382.8L-1877.3-382.8z"/>
						</g>
					</g>
				</g>
			</g>
		</g>
	</g>
</g>
</svg>
